<mxfile host="app.diagrams.net" modified="2022-06-23T09:21:23.005Z" agent="5.0 (X11; Linux x86_64) AppleWebKit/537.36 (KHTML, like Gecko) Chrome/102.0.0.0 Safari/537.36" etag="u_Y_npq57xKtnHi8fsSS" version="20.0.3" type="github" pages="4">
  <diagram id="5Hddvr9R39F02Y2sYrO2" name="Page-1">
    <mxGraphModel dx="1422" dy="800" grid="1" gridSize="10" guides="1" tooltips="1" connect="1" arrows="1" fold="1" page="1" pageScale="1" pageWidth="850" pageHeight="1100" math="0" shadow="0">
      <root>
        <mxCell id="0" />
        <mxCell id="1" parent="0" />
        <mxCell id="KMYwIkNiCPRbu2Xk197i-32" value="Users" style="text;html=1;align=center;verticalAlign=middle;resizable=0;points=[];autosize=1;strokeColor=none;fillColor=none;" parent="1" vertex="1">
          <mxGeometry x="35" y="490" width="50" height="20" as="geometry" />
        </mxCell>
        <mxCell id="KMYwIkNiCPRbu2Xk197i-2" value="" style="sketch=0;outlineConnect=0;fontColor=#232F3E;gradientColor=none;fillColor=#232F3D;strokeColor=none;dashed=0;verticalLabelPosition=bottom;verticalAlign=top;align=center;html=1;fontSize=12;fontStyle=0;aspect=fixed;pointerEvents=1;shape=mxgraph.aws4.users;" parent="1" vertex="1">
          <mxGeometry x="40" y="440" width="40" height="40" as="geometry" />
        </mxCell>
        <mxCell id="KMYwIkNiCPRbu2Xk197i-3" value="AWS Cloud" style="points=[[0,0],[0.25,0],[0.5,0],[0.75,0],[1,0],[1,0.25],[1,0.5],[1,0.75],[1,1],[0.75,1],[0.5,1],[0.25,1],[0,1],[0,0.75],[0,0.5],[0,0.25]];outlineConnect=0;gradientColor=none;html=1;whiteSpace=wrap;fontSize=12;fontStyle=0;container=1;pointerEvents=0;collapsible=0;recursiveResize=0;shape=mxgraph.aws4.group;grIcon=mxgraph.aws4.group_aws_cloud_alt;strokeColor=#232F3E;fillColor=none;verticalAlign=top;align=left;spacingLeft=30;fontColor=#232F3E;dashed=0;" parent="1" vertex="1">
          <mxGeometry x="120" y="200" width="560" height="440" as="geometry" />
        </mxCell>
        <mxCell id="KMYwIkNiCPRbu2Xk197i-12" value="SCTS" style="fillColor=none;strokeColor=#5A6C86;dashed=1;verticalAlign=top;fontStyle=0;fontColor=#5A6C86;" parent="KMYwIkNiCPRbu2Xk197i-3" vertex="1">
          <mxGeometry x="40" y="40" width="240" height="360" as="geometry" />
        </mxCell>
        <mxCell id="KMYwIkNiCPRbu2Xk197i-5" value="" style="sketch=0;points=[[0,0,0],[0.25,0,0],[0.5,0,0],[0.75,0,0],[1,0,0],[0,1,0],[0.25,1,0],[0.5,1,0],[0.75,1,0],[1,1,0],[0,0.25,0],[0,0.5,0],[0,0.75,0],[1,0.25,0],[1,0.5,0],[1,0.75,0]];outlineConnect=0;fontColor=#232F3E;gradientColor=#F54749;gradientDirection=north;fillColor=#C7131F;strokeColor=#ffffff;dashed=0;verticalLabelPosition=bottom;verticalAlign=top;align=center;html=1;fontSize=12;fontStyle=0;aspect=fixed;shape=mxgraph.aws4.resourceIcon;resIcon=mxgraph.aws4.identity_and_access_management;" parent="KMYwIkNiCPRbu2Xk197i-3" vertex="1">
          <mxGeometry x="80" y="80" width="40" height="40" as="geometry" />
        </mxCell>
        <mxCell id="KMYwIkNiCPRbu2Xk197i-7" value="IAM" style="text;html=1;align=center;verticalAlign=middle;resizable=0;points=[];autosize=1;strokeColor=none;fillColor=none;" parent="KMYwIkNiCPRbu2Xk197i-3" vertex="1">
          <mxGeometry x="80" y="120" width="40" height="20" as="geometry" />
        </mxCell>
        <mxCell id="KMYwIkNiCPRbu2Xk197i-8" value="" style="sketch=0;points=[[0,0,0],[0.25,0,0],[0.5,0,0],[0.75,0,0],[1,0,0],[0,1,0],[0.25,1,0],[0.5,1,0],[0.75,1,0],[1,1,0],[0,0.25,0],[0,0.5,0],[0,0.75,0],[1,0.25,0],[1,0.5,0],[1,0.75,0]];outlineConnect=0;fontColor=#232F3E;gradientColor=#60A337;gradientDirection=north;fillColor=#277116;strokeColor=#ffffff;dashed=0;verticalLabelPosition=bottom;verticalAlign=top;align=center;html=1;fontSize=12;fontStyle=0;aspect=fixed;shape=mxgraph.aws4.resourceIcon;resIcon=mxgraph.aws4.s3;" parent="KMYwIkNiCPRbu2Xk197i-3" vertex="1">
          <mxGeometry x="80" y="201" width="40" height="40" as="geometry" />
        </mxCell>
        <mxCell id="KMYwIkNiCPRbu2Xk197i-9" value="S3 Bucket" style="text;html=1;align=center;verticalAlign=middle;resizable=0;points=[];autosize=1;strokeColor=none;fillColor=none;" parent="KMYwIkNiCPRbu2Xk197i-3" vertex="1">
          <mxGeometry x="63" y="250" width="70" height="20" as="geometry" />
        </mxCell>
        <mxCell id="KMYwIkNiCPRbu2Xk197i-10" value="" style="sketch=0;points=[[0,0,0],[0.25,0,0],[0.5,0,0],[0.75,0,0],[1,0,0],[0,1,0],[0.25,1,0],[0.5,1,0],[0.75,1,0],[1,1,0],[0,0.25,0],[0,0.5,0],[0,0.75,0],[1,0.25,0],[1,0.5,0],[1,0.75,0]];outlineConnect=0;fontColor=#232F3E;gradientColor=#F78E04;gradientDirection=north;fillColor=#D05C17;strokeColor=#ffffff;dashed=0;verticalLabelPosition=bottom;verticalAlign=top;align=center;html=1;fontSize=12;fontStyle=0;aspect=fixed;shape=mxgraph.aws4.resourceIcon;resIcon=mxgraph.aws4.lambda;" parent="KMYwIkNiCPRbu2Xk197i-3" vertex="1">
          <mxGeometry x="200" y="201" width="40" height="40" as="geometry" />
        </mxCell>
        <mxCell id="KMYwIkNiCPRbu2Xk197i-13" value="" style="sketch=0;points=[[0,0,0],[0.25,0,0],[0.5,0,0],[0.75,0,0],[1,0,0],[0,1,0],[0.25,1,0],[0.5,1,0],[0.75,1,0],[1,1,0],[0,0.25,0],[0,0.5,0],[0,0.75,0],[1,0.25,0],[1,0.5,0],[1,0.75,0]];points=[[0,0,0],[0.25,0,0],[0.5,0,0],[0.75,0,0],[1,0,0],[0,1,0],[0.25,1,0],[0.5,1,0],[0.75,1,0],[1,1,0],[0,0.25,0],[0,0.5,0],[0,0.75,0],[1,0.25,0],[1,0.5,0],[1,0.75,0]];outlineConnect=0;fontColor=#232F3E;gradientColor=#F34482;gradientDirection=north;fillColor=#BC1356;strokeColor=#ffffff;dashed=0;verticalLabelPosition=bottom;verticalAlign=top;align=center;html=1;fontSize=12;fontStyle=0;aspect=fixed;shape=mxgraph.aws4.resourceIcon;resIcon=mxgraph.aws4.app_config;" parent="KMYwIkNiCPRbu2Xk197i-3" vertex="1">
          <mxGeometry x="200" y="80" width="40" height="40" as="geometry" />
        </mxCell>
        <mxCell id="KMYwIkNiCPRbu2Xk197i-14" value="App Config" style="text;html=1;align=center;verticalAlign=middle;resizable=0;points=[];autosize=1;strokeColor=none;fillColor=none;" parent="KMYwIkNiCPRbu2Xk197i-3" vertex="1">
          <mxGeometry x="180" y="130" width="80" height="20" as="geometry" />
        </mxCell>
        <mxCell id="KMYwIkNiCPRbu2Xk197i-16" value="" style="sketch=0;points=[[0,0,0],[0.25,0,0],[0.5,0,0],[0.75,0,0],[1,0,0],[0,1,0],[0.25,1,0],[0.5,1,0],[0.75,1,0],[1,1,0],[0,0.25,0],[0,0.5,0],[0,0.75,0],[1,0.25,0],[1,0.5,0],[1,0.75,0]];outlineConnect=0;fontColor=#232F3E;gradientColor=#F78E04;gradientDirection=north;fillColor=#D05C17;strokeColor=#ffffff;dashed=0;verticalLabelPosition=bottom;verticalAlign=top;align=center;html=1;fontSize=12;fontStyle=0;aspect=fixed;shape=mxgraph.aws4.resourceIcon;resIcon=mxgraph.aws4.containers;" parent="KMYwIkNiCPRbu2Xk197i-3" vertex="1">
          <mxGeometry x="400" y="80" width="40" height="40" as="geometry" />
        </mxCell>
        <mxCell id="KMYwIkNiCPRbu2Xk197i-11" value="Lambda" style="text;html=1;align=center;verticalAlign=middle;resizable=0;points=[];autosize=1;strokeColor=none;fillColor=none;" parent="KMYwIkNiCPRbu2Xk197i-3" vertex="1">
          <mxGeometry x="190" y="250" width="60" height="20" as="geometry" />
        </mxCell>
        <mxCell id="KMYwIkNiCPRbu2Xk197i-15" value="Promise" style="fillColor=none;strokeColor=#5A6C86;dashed=1;verticalAlign=top;fontStyle=0;fontColor=#5A6C86;" parent="KMYwIkNiCPRbu2Xk197i-3" vertex="1">
          <mxGeometry x="320" y="40" width="200" height="200" as="geometry" />
        </mxCell>
        <mxCell id="KMYwIkNiCPRbu2Xk197i-17" value="Container" style="text;html=1;align=center;verticalAlign=middle;resizable=0;points=[];autosize=1;strokeColor=none;fillColor=none;" parent="KMYwIkNiCPRbu2Xk197i-3" vertex="1">
          <mxGeometry x="385" y="130" width="70" height="20" as="geometry" />
        </mxCell>
        <mxCell id="KMYwIkNiCPRbu2Xk197i-21" value="" style="edgeStyle=orthogonalEdgeStyle;html=1;endArrow=open;elbow=vertical;startArrow=none;endFill=0;strokeColor=#545B64;rounded=0;entryX=0.5;entryY=0;entryDx=0;entryDy=0;entryPerimeter=0;exitX=0.488;exitY=0;exitDx=0;exitDy=0;exitPerimeter=0;" parent="KMYwIkNiCPRbu2Xk197i-3" source="KMYwIkNiCPRbu2Xk197i-7" target="KMYwIkNiCPRbu2Xk197i-8" edge="1">
          <mxGeometry width="100" relative="1" as="geometry">
            <mxPoint x="-70" y="250" as="sourcePoint" />
            <mxPoint x="30" y="250" as="targetPoint" />
            <Array as="points">
              <mxPoint x="100" y="140" />
              <mxPoint x="100" y="140" />
            </Array>
          </mxGeometry>
        </mxCell>
        <mxCell id="KMYwIkNiCPRbu2Xk197i-22" value="" style="edgeStyle=orthogonalEdgeStyle;html=1;endArrow=open;elbow=vertical;startArrow=none;endFill=0;strokeColor=#545B64;rounded=0;exitX=1;exitY=0.5;exitDx=0;exitDy=0;exitPerimeter=0;" parent="KMYwIkNiCPRbu2Xk197i-3" source="KMYwIkNiCPRbu2Xk197i-8" edge="1">
          <mxGeometry width="100" relative="1" as="geometry">
            <mxPoint x="130" y="220" as="sourcePoint" />
            <mxPoint x="200" y="220" as="targetPoint" />
            <Array as="points">
              <mxPoint x="120" y="220" />
            </Array>
          </mxGeometry>
        </mxCell>
        <mxCell id="KMYwIkNiCPRbu2Xk197i-23" value="" style="edgeStyle=orthogonalEdgeStyle;html=1;endArrow=open;elbow=vertical;startArrow=none;endFill=0;strokeColor=#545B64;rounded=0;entryX=0.5;entryY=1;entryDx=0;entryDy=0;entryPerimeter=0;exitX=0.5;exitY=0;exitDx=0;exitDy=0;exitPerimeter=0;" parent="KMYwIkNiCPRbu2Xk197i-3" source="KMYwIkNiCPRbu2Xk197i-10" target="KMYwIkNiCPRbu2Xk197i-13" edge="1">
          <mxGeometry width="100" relative="1" as="geometry">
            <mxPoint x="160" y="40" as="sourcePoint" />
            <mxPoint x="350" y="200" as="targetPoint" />
          </mxGeometry>
        </mxCell>
        <mxCell id="KMYwIkNiCPRbu2Xk197i-24" value="" style="edgeStyle=orthogonalEdgeStyle;html=1;endArrow=none;elbow=vertical;startArrow=open;startFill=0;strokeColor=#545B64;rounded=0;exitX=1;exitY=0.5;exitDx=0;exitDy=0;exitPerimeter=0;" parent="KMYwIkNiCPRbu2Xk197i-3" source="KMYwIkNiCPRbu2Xk197i-13" edge="1">
          <mxGeometry width="100" relative="1" as="geometry">
            <mxPoint x="300" y="100" as="sourcePoint" />
            <mxPoint x="400" y="100" as="targetPoint" />
          </mxGeometry>
        </mxCell>
        <mxCell id="KMYwIkNiCPRbu2Xk197i-26" value="Simple Email&lt;br&gt;Service" style="text;html=1;align=center;verticalAlign=middle;resizable=0;points=[];autosize=1;strokeColor=none;fillColor=none;" parent="KMYwIkNiCPRbu2Xk197i-3" vertex="1">
          <mxGeometry x="173" y="363" width="90" height="30" as="geometry" />
        </mxCell>
        <mxCell id="KMYwIkNiCPRbu2Xk197i-29" value="" style="sketch=0;points=[[0,0,0],[0.25,0,0],[0.5,0,0],[0.75,0,0],[1,0,0],[0,1,0],[0.25,1,0],[0.5,1,0],[0.75,1,0],[1,1,0],[0,0.25,0],[0,0.5,0],[0,0.75,0],[1,0.25,0],[1,0.5,0],[1,0.75,0]];outlineConnect=0;fontColor=#232F3E;gradientColor=#4D72F3;gradientDirection=north;fillColor=#3334B9;strokeColor=#ffffff;dashed=0;verticalLabelPosition=bottom;verticalAlign=top;align=center;html=1;fontSize=12;fontStyle=0;aspect=fixed;shape=mxgraph.aws4.resourceIcon;resIcon=mxgraph.aws4.simple_email_service;" parent="KMYwIkNiCPRbu2Xk197i-3" vertex="1">
          <mxGeometry x="201" y="320" width="38" height="38" as="geometry" />
        </mxCell>
        <mxCell id="KMYwIkNiCPRbu2Xk197i-31" value="" style="edgeStyle=orthogonalEdgeStyle;html=1;endArrow=open;elbow=vertical;startArrow=none;endFill=0;strokeColor=#545B64;rounded=0;exitX=0.5;exitY=1;exitDx=0;exitDy=0;exitPerimeter=0;" parent="KMYwIkNiCPRbu2Xk197i-3" source="KMYwIkNiCPRbu2Xk197i-10" target="KMYwIkNiCPRbu2Xk197i-29" edge="1">
          <mxGeometry width="100" relative="1" as="geometry">
            <mxPoint x="340" y="330" as="sourcePoint" />
            <mxPoint x="440" y="330" as="targetPoint" />
          </mxGeometry>
        </mxCell>
        <mxCell id="KMYwIkNiCPRbu2Xk197i-35" value="" style="sketch=0;points=[[0,0,0],[0.25,0,0],[0.5,0,0],[0.75,0,0],[1,0,0],[0,1,0],[0.25,1,0],[0.5,1,0],[0.75,1,0],[1,1,0],[0,0.25,0],[0,0.5,0],[0,0.75,0],[1,0.25,0],[1,0.5,0],[1,0.75,0]];outlineConnect=0;fontColor=#232F3E;gradientColor=#FF4F8B;gradientDirection=north;fillColor=#BC1356;strokeColor=#ffffff;dashed=0;verticalLabelPosition=bottom;verticalAlign=top;align=center;html=1;fontSize=12;fontStyle=0;aspect=fixed;shape=mxgraph.aws4.resourceIcon;resIcon=mxgraph.aws4.sns;" parent="KMYwIkNiCPRbu2Xk197i-3" vertex="1">
          <mxGeometry x="361" y="281" width="39" height="39" as="geometry" />
        </mxCell>
        <mxCell id="KMYwIkNiCPRbu2Xk197i-36" value="Simple Notification&lt;br&gt;Service" style="text;html=1;align=center;verticalAlign=middle;resizable=0;points=[];autosize=1;strokeColor=none;fillColor=none;" parent="KMYwIkNiCPRbu2Xk197i-3" vertex="1">
          <mxGeometry x="320.5" y="328" width="120" height="30" as="geometry" />
        </mxCell>
        <mxCell id="KMYwIkNiCPRbu2Xk197i-4" value="" style="sketch=0;points=[[0,0,0],[0.25,0,0],[0.5,0,0],[0.75,0,0],[1,0,0],[0,1,0],[0.25,1,0],[0.5,1,0],[0.75,1,0],[1,1,0],[0,0.25,0],[0,0.5,0],[0,0.75,0],[1,0.25,0],[1,0.5,0],[1,0.75,0]];outlineConnect=0;fontColor=#232F3E;gradientColor=#F54749;gradientDirection=north;fillColor=#C7131F;strokeColor=#ffffff;dashed=0;verticalLabelPosition=bottom;verticalAlign=top;align=center;html=1;fontSize=12;fontStyle=0;aspect=fixed;shape=mxgraph.aws4.resourceIcon;resIcon=mxgraph.aws4.single_sign_on;" parent="1" vertex="1">
          <mxGeometry x="40" y="280" width="40" height="40" as="geometry" />
        </mxCell>
        <mxCell id="KMYwIkNiCPRbu2Xk197i-6" value="Single SIgn-On" style="text;html=1;align=center;verticalAlign=middle;resizable=0;points=[];autosize=1;strokeColor=none;fillColor=none;" parent="1" vertex="1">
          <mxGeometry x="10" y="330" width="100" height="20" as="geometry" />
        </mxCell>
        <mxCell id="KMYwIkNiCPRbu2Xk197i-19" value="" style="edgeStyle=orthogonalEdgeStyle;html=1;endArrow=open;elbow=vertical;startArrow=none;endFill=0;strokeColor=#545B64;rounded=0;entryX=0.5;entryY=1;entryDx=0;entryDy=0;entryPerimeter=0;" parent="1" source="KMYwIkNiCPRbu2Xk197i-2" target="KMYwIkNiCPRbu2Xk197i-4" edge="1">
          <mxGeometry width="100" relative="1" as="geometry">
            <mxPoint x="30" y="250" as="sourcePoint" />
            <mxPoint x="130" y="250" as="targetPoint" />
          </mxGeometry>
        </mxCell>
        <mxCell id="KMYwIkNiCPRbu2Xk197i-20" value="" style="edgeStyle=orthogonalEdgeStyle;html=1;endArrow=open;elbow=vertical;startArrow=none;endFill=0;strokeColor=#545B64;rounded=0;exitX=1;exitY=0.5;exitDx=0;exitDy=0;exitPerimeter=0;entryX=0;entryY=0.5;entryDx=0;entryDy=0;entryPerimeter=0;" parent="1" source="KMYwIkNiCPRbu2Xk197i-4" target="KMYwIkNiCPRbu2Xk197i-5" edge="1">
          <mxGeometry width="100" relative="1" as="geometry">
            <mxPoint x="90" y="300" as="sourcePoint" />
            <mxPoint x="190" y="300" as="targetPoint" />
          </mxGeometry>
        </mxCell>
        <mxCell id="KMYwIkNiCPRbu2Xk197i-34" value="" style="edgeStyle=orthogonalEdgeStyle;html=1;endArrow=none;elbow=vertical;startArrow=open;startFill=0;strokeColor=#545B64;rounded=0;entryX=0;entryY=0.5;entryDx=0;entryDy=0;entryPerimeter=0;" parent="1" source="KMYwIkNiCPRbu2Xk197i-2" target="KMYwIkNiCPRbu2Xk197i-29" edge="1">
          <mxGeometry width="100" relative="1" as="geometry">
            <mxPoint x="60" y="560" as="sourcePoint" />
            <mxPoint x="160" y="560" as="targetPoint" />
            <Array as="points">
              <mxPoint x="60" y="539" />
            </Array>
          </mxGeometry>
        </mxCell>
      </root>
    </mxGraphModel>
  </diagram>
  <diagram id="2sG5APMi4bhzjJCe7gPQ" name="Page-2">
    <mxGraphModel dx="1422" dy="800" grid="1" gridSize="10" guides="1" tooltips="1" connect="1" arrows="1" fold="1" page="1" pageScale="1" pageWidth="850" pageHeight="1100" math="0" shadow="0">
      <root>
        <mxCell id="0" />
        <mxCell id="1" parent="0" />
      </root>
    </mxGraphModel>
  </diagram>
  <diagram id="348ocmUbu0WrrIfSh9TJ" name="Page-3">
    <mxGraphModel dx="1422" dy="800" grid="0" gridSize="10" guides="1" tooltips="1" connect="1" arrows="1" fold="1" page="1" pageScale="1" pageWidth="850" pageHeight="1100" math="0" shadow="0">
      <root>
        <mxCell id="0" />
        <mxCell id="1" parent="0" />
        <mxCell id="HuhxW66Ebtv0QDf_SXtC-54" value="&lt;span&gt;Bug Fix in UAT/ Hot Fix&amp;nbsp;in Prod and Release Process&lt;/span&gt;" style="shape=umlFrame;whiteSpace=wrap;html=1;shadow=0;strokeColor=#1A1A1A;fillColor=#E6E6E6;width=340;height=19;" parent="1" vertex="1">
          <mxGeometry x="50" y="981" width="980" height="380" as="geometry" />
        </mxCell>
        <mxCell id="HuhxW66Ebtv0QDf_SXtC-53" value="&lt;span&gt;Feature Development and Release Process&lt;/span&gt;" style="shape=umlFrame;whiteSpace=wrap;html=1;shadow=0;strokeColor=#1A1A1A;fillColor=#E6E6E6;width=280;height=20;" parent="1" vertex="1">
          <mxGeometry x="50" y="540" width="980" height="380" as="geometry" />
        </mxCell>
        <mxCell id="uX7iz60XXTC2MCOfte5J-95" value="" style="rounded=0;whiteSpace=wrap;html=1;shadow=0;strokeColor=#CC0066;fillColor=none;" parent="1" vertex="1">
          <mxGeometry x="201" y="653" width="320" height="170" as="geometry" />
        </mxCell>
        <mxCell id="uX7iz60XXTC2MCOfte5J-38" value="" style="endArrow=none;html=1;rounded=0;startArrow=none;strokeWidth=2;" parent="1" source="uX7iz60XXTC2MCOfte5J-49" edge="1">
          <mxGeometry width="50" height="50" relative="1" as="geometry">
            <mxPoint x="80" y="630" as="sourcePoint" />
            <mxPoint x="920" y="630" as="targetPoint" />
          </mxGeometry>
        </mxCell>
        <mxCell id="uX7iz60XXTC2MCOfte5J-40" value="" style="endArrow=none;html=1;rounded=0;strokeWidth=2;" parent="1" target="uX7iz60XXTC2MCOfte5J-39" edge="1">
          <mxGeometry width="50" height="50" relative="1" as="geometry">
            <mxPoint x="80" y="630" as="sourcePoint" />
            <mxPoint x="720" y="630" as="targetPoint" />
          </mxGeometry>
        </mxCell>
        <mxCell id="uX7iz60XXTC2MCOfte5J-41" value="master" style="text;html=1;align=center;verticalAlign=middle;resizable=0;points=[];autosize=1;strokeColor=none;fillColor=#66FF66;" parent="1" vertex="1">
          <mxGeometry x="60" y="640" width="50" height="20" as="geometry" />
        </mxCell>
        <mxCell id="uX7iz60XXTC2MCOfte5J-42" value="" style="ellipse;whiteSpace=wrap;html=1;aspect=fixed;fillColor=#d5e8d4;strokeColor=#82b366;" parent="1" vertex="1">
          <mxGeometry x="280" y="610" width="40" height="40" as="geometry" />
        </mxCell>
        <mxCell id="uX7iz60XXTC2MCOfte5J-43" value="" style="endArrow=none;html=1;rounded=0;startArrow=none;strokeWidth=2;" parent="1" source="uX7iz60XXTC2MCOfte5J-39" target="uX7iz60XXTC2MCOfte5J-42" edge="1">
          <mxGeometry width="50" height="50" relative="1" as="geometry">
            <mxPoint x="160" y="630" as="sourcePoint" />
            <mxPoint x="720" y="630" as="targetPoint" />
          </mxGeometry>
        </mxCell>
        <mxCell id="uX7iz60XXTC2MCOfte5J-44" value="" style="ellipse;whiteSpace=wrap;html=1;aspect=fixed;fillColor=#d5e8d4;strokeColor=#82b366;" parent="1" vertex="1">
          <mxGeometry x="440" y="610" width="40" height="40" as="geometry" />
        </mxCell>
        <mxCell id="uX7iz60XXTC2MCOfte5J-46" value="" style="endArrow=none;html=1;rounded=0;startArrow=none;strokeWidth=2;" parent="1" source="uX7iz60XXTC2MCOfte5J-42" target="uX7iz60XXTC2MCOfte5J-44" edge="1">
          <mxGeometry width="50" height="50" relative="1" as="geometry">
            <mxPoint x="320" y="630" as="sourcePoint" />
            <mxPoint x="720" y="630" as="targetPoint" />
          </mxGeometry>
        </mxCell>
        <mxCell id="uX7iz60XXTC2MCOfte5J-49" value="" style="ellipse;whiteSpace=wrap;html=1;aspect=fixed;fillColor=#d5e8d4;strokeColor=#82b366;" parent="1" vertex="1">
          <mxGeometry x="560" y="610" width="40" height="40" as="geometry" />
        </mxCell>
        <mxCell id="uX7iz60XXTC2MCOfte5J-50" value="" style="endArrow=none;html=1;rounded=0;startArrow=none;strokeWidth=2;" parent="1" source="uX7iz60XXTC2MCOfte5J-44" target="uX7iz60XXTC2MCOfte5J-49" edge="1">
          <mxGeometry width="50" height="50" relative="1" as="geometry">
            <mxPoint x="480" y="630" as="sourcePoint" />
            <mxPoint x="720" y="630" as="targetPoint" />
          </mxGeometry>
        </mxCell>
        <mxCell id="uX7iz60XXTC2MCOfte5J-57" value="" style="endArrow=classicThin;html=1;strokeWidth=2;curved=1;endFill=1;" parent="1" edge="1">
          <mxGeometry width="50" height="50" relative="1" as="geometry">
            <mxPoint x="180" y="630" as="sourcePoint" />
            <mxPoint x="180" y="740" as="targetPoint" />
          </mxGeometry>
        </mxCell>
        <mxCell id="uX7iz60XXTC2MCOfte5J-58" value="" style="endArrow=none;html=1;strokeWidth=2;curved=1;startArrow=none;" parent="1" source="uX7iz60XXTC2MCOfte5J-75" edge="1">
          <mxGeometry width="50" height="50" relative="1" as="geometry">
            <mxPoint x="80" y="740" as="sourcePoint" />
            <mxPoint x="920" y="740" as="targetPoint" />
          </mxGeometry>
        </mxCell>
        <mxCell id="uX7iz60XXTC2MCOfte5J-59" value="dev" style="text;html=1;align=center;verticalAlign=middle;resizable=0;points=[];autosize=1;strokeColor=none;fillColor=#FF6666;" parent="1" vertex="1">
          <mxGeometry x="70" y="750" width="30" height="20" as="geometry" />
        </mxCell>
        <mxCell id="uX7iz60XXTC2MCOfte5J-60" value="" style="endArrow=classicThin;html=1;strokeWidth=2;curved=1;endFill=1;" parent="1" edge="1">
          <mxGeometry width="50" height="50" relative="1" as="geometry">
            <mxPoint x="180" y="630" as="sourcePoint" />
            <mxPoint x="180" y="840" as="targetPoint" />
          </mxGeometry>
        </mxCell>
        <mxCell id="uX7iz60XXTC2MCOfte5J-61" value="" style="endArrow=none;html=1;strokeWidth=2;curved=1;startArrow=none;" parent="1" source="uX7iz60XXTC2MCOfte5J-80" edge="1">
          <mxGeometry width="50" height="50" relative="1" as="geometry">
            <mxPoint x="80" y="840" as="sourcePoint" />
            <mxPoint x="920" y="840" as="targetPoint" />
          </mxGeometry>
        </mxCell>
        <mxCell id="uX7iz60XXTC2MCOfte5J-63" value="staging" style="text;html=1;align=center;verticalAlign=middle;resizable=0;points=[];autosize=1;strokeColor=none;fillColor=#66FF66;" parent="1" vertex="1">
          <mxGeometry x="60" y="850" width="50" height="20" as="geometry" />
        </mxCell>
        <mxCell id="uX7iz60XXTC2MCOfte5J-64" value="" style="endArrow=none;html=1;strokeWidth=2;curved=1;startArrow=none;" parent="1" source="uX7iz60XXTC2MCOfte5J-67" edge="1">
          <mxGeometry width="50" height="50" relative="1" as="geometry">
            <mxPoint x="240" y="740" as="sourcePoint" />
            <mxPoint x="240" y="700" as="targetPoint" />
          </mxGeometry>
        </mxCell>
        <mxCell id="uX7iz60XXTC2MCOfte5J-65" value="" style="endArrow=none;html=1;strokeWidth=2;curved=1;" parent="1" edge="1">
          <mxGeometry width="50" height="50" relative="1" as="geometry">
            <mxPoint x="240" y="700" as="sourcePoint" />
            <mxPoint x="460" y="700" as="targetPoint" />
          </mxGeometry>
        </mxCell>
        <mxCell id="uX7iz60XXTC2MCOfte5J-66" value="" style="endArrow=none;html=1;strokeWidth=2;curved=1;startArrow=none;" parent="1" source="uX7iz60XXTC2MCOfte5J-71" edge="1">
          <mxGeometry width="50" height="50" relative="1" as="geometry">
            <mxPoint x="459.5" y="740" as="sourcePoint" />
            <mxPoint x="459.5" y="700" as="targetPoint" />
          </mxGeometry>
        </mxCell>
        <mxCell id="uX7iz60XXTC2MCOfte5J-48" value="" style="ellipse;whiteSpace=wrap;html=1;aspect=fixed;fillColor=#dae8fc;strokeColor=#6c8ebf;" parent="1" vertex="1">
          <mxGeometry x="280" y="680" width="40" height="40" as="geometry" />
        </mxCell>
        <mxCell id="uX7iz60XXTC2MCOfte5J-47" value="" style="ellipse;whiteSpace=wrap;html=1;aspect=fixed;fillColor=#dae8fc;strokeColor=#6c8ebf;" parent="1" vertex="1">
          <mxGeometry x="390" y="680" width="40" height="40" as="geometry" />
        </mxCell>
        <mxCell id="uX7iz60XXTC2MCOfte5J-68" value="" style="endArrow=none;html=1;strokeWidth=2;curved=1;" parent="1" target="uX7iz60XXTC2MCOfte5J-67" edge="1">
          <mxGeometry width="50" height="50" relative="1" as="geometry">
            <mxPoint x="80" y="740" as="sourcePoint" />
            <mxPoint x="720" y="740" as="targetPoint" />
          </mxGeometry>
        </mxCell>
        <mxCell id="uX7iz60XXTC2MCOfte5J-69" value="" style="ellipse;whiteSpace=wrap;html=1;aspect=fixed;fillColor=#d5e8d4;strokeColor=#82b366;" parent="1" vertex="1">
          <mxGeometry x="335" y="720" width="40" height="40" as="geometry" />
        </mxCell>
        <mxCell id="uX7iz60XXTC2MCOfte5J-70" value="" style="endArrow=none;html=1;strokeWidth=2;curved=1;startArrow=none;" parent="1" source="uX7iz60XXTC2MCOfte5J-67" target="uX7iz60XXTC2MCOfte5J-69" edge="1">
          <mxGeometry width="50" height="50" relative="1" as="geometry">
            <mxPoint x="230" y="740" as="sourcePoint" />
            <mxPoint x="720" y="740" as="targetPoint" />
          </mxGeometry>
        </mxCell>
        <mxCell id="uX7iz60XXTC2MCOfte5J-72" value="" style="endArrow=none;html=1;strokeWidth=2;curved=1;" parent="1" target="uX7iz60XXTC2MCOfte5J-71" edge="1">
          <mxGeometry width="50" height="50" relative="1" as="geometry">
            <mxPoint x="459.5" y="740" as="sourcePoint" />
            <mxPoint x="459.5" y="700" as="targetPoint" />
          </mxGeometry>
        </mxCell>
        <mxCell id="uX7iz60XXTC2MCOfte5J-67" value="" style="ellipse;whiteSpace=wrap;html=1;aspect=fixed;fillColor=#d5e8d4;strokeColor=#82b366;" parent="1" vertex="1">
          <mxGeometry x="220" y="720" width="40" height="40" as="geometry" />
        </mxCell>
        <mxCell id="uX7iz60XXTC2MCOfte5J-73" value="" style="endArrow=none;html=1;strokeWidth=2;curved=1;" parent="1" target="uX7iz60XXTC2MCOfte5J-67" edge="1">
          <mxGeometry width="50" height="50" relative="1" as="geometry">
            <mxPoint x="240" y="740" as="sourcePoint" />
            <mxPoint x="240" y="700" as="targetPoint" />
          </mxGeometry>
        </mxCell>
        <mxCell id="uX7iz60XXTC2MCOfte5J-74" value="1.3Merge and deploy&amp;nbsp;" style="text;html=1;align=center;verticalAlign=middle;resizable=0;points=[];autosize=1;strokeColor=none;fillColor=none;" parent="1" vertex="1">
          <mxGeometry x="380" y="770" width="130" height="20" as="geometry" />
        </mxCell>
        <mxCell id="uX7iz60XXTC2MCOfte5J-75" value="" style="ellipse;whiteSpace=wrap;html=1;aspect=fixed;fillColor=#d5e8d4;strokeColor=#82b366;" parent="1" vertex="1">
          <mxGeometry x="550" y="720" width="40" height="40" as="geometry" />
        </mxCell>
        <mxCell id="uX7iz60XXTC2MCOfte5J-76" value="" style="endArrow=none;html=1;strokeWidth=2;curved=1;startArrow=none;" parent="1" source="uX7iz60XXTC2MCOfte5J-69" target="uX7iz60XXTC2MCOfte5J-75" edge="1">
          <mxGeometry width="50" height="50" relative="1" as="geometry">
            <mxPoint x="375" y="740" as="sourcePoint" />
            <mxPoint x="720" y="740" as="targetPoint" />
          </mxGeometry>
        </mxCell>
        <mxCell id="uX7iz60XXTC2MCOfte5J-78" value="" style="endArrow=classicThin;html=1;strokeWidth=2;curved=1;endFill=1;entryX=0.5;entryY=0;entryDx=0;entryDy=0;" parent="1" target="uX7iz60XXTC2MCOfte5J-80" edge="1">
          <mxGeometry width="50" height="50" relative="1" as="geometry">
            <mxPoint x="640" y="740" as="sourcePoint" />
            <mxPoint x="640" y="840" as="targetPoint" />
          </mxGeometry>
        </mxCell>
        <mxCell id="uX7iz60XXTC2MCOfte5J-79" value="1.Feature development" style="text;html=1;align=center;verticalAlign=middle;resizable=0;points=[];autosize=1;strokeColor=none;fillColor=#CCFFFF;shadow=0;" parent="1" vertex="1">
          <mxGeometry x="290" y="800" width="140" height="20" as="geometry" />
        </mxCell>
        <mxCell id="uX7iz60XXTC2MCOfte5J-80" value="" style="ellipse;whiteSpace=wrap;html=1;aspect=fixed;fillColor=#d5e8d4;strokeColor=#82b366;" parent="1" vertex="1">
          <mxGeometry x="620" y="820" width="40" height="40" as="geometry" />
        </mxCell>
        <mxCell id="uX7iz60XXTC2MCOfte5J-81" value="" style="endArrow=none;html=1;strokeWidth=2;curved=1;" parent="1" target="uX7iz60XXTC2MCOfte5J-80" edge="1">
          <mxGeometry width="50" height="50" relative="1" as="geometry">
            <mxPoint x="80" y="840" as="sourcePoint" />
            <mxPoint x="720" y="840" as="targetPoint" />
          </mxGeometry>
        </mxCell>
        <mxCell id="uX7iz60XXTC2MCOfte5J-71" value="" style="ellipse;whiteSpace=wrap;html=1;aspect=fixed;fillColor=#d5e8d4;strokeColor=#82b366;" parent="1" vertex="1">
          <mxGeometry x="440" y="720" width="40" height="40" as="geometry" />
        </mxCell>
        <mxCell id="uX7iz60XXTC2MCOfte5J-82" value="2.Merge and deploy" style="text;html=1;align=center;verticalAlign=middle;resizable=0;points=[];autosize=1;strokeColor=none;fillColor=#CCFFFF;" parent="1" vertex="1">
          <mxGeometry x="575" y="880" width="120" height="20" as="geometry" />
        </mxCell>
        <mxCell id="uX7iz60XXTC2MCOfte5J-83" value="" style="endArrow=classic;html=1;strokeWidth=2;curved=1;entryX=0.5;entryY=1;entryDx=0;entryDy=0;" parent="1" target="uX7iz60XXTC2MCOfte5J-84" edge="1">
          <mxGeometry width="50" height="50" relative="1" as="geometry">
            <mxPoint x="760" y="840" as="sourcePoint" />
            <mxPoint x="760" y="630" as="targetPoint" />
          </mxGeometry>
        </mxCell>
        <mxCell id="uX7iz60XXTC2MCOfte5J-84" value="" style="ellipse;whiteSpace=wrap;html=1;aspect=fixed;fillColor=#d5e8d4;strokeColor=#82b366;" parent="1" vertex="1">
          <mxGeometry x="740" y="610" width="40" height="40" as="geometry" />
        </mxCell>
        <mxCell id="uX7iz60XXTC2MCOfte5J-85" value="3.Merge and deploy&amp;nbsp;" style="text;html=1;align=center;verticalAlign=middle;resizable=0;points=[];autosize=1;strokeColor=none;fillColor=#CCFFFF;" parent="1" vertex="1">
          <mxGeometry x="700" y="580" width="120" height="20" as="geometry" />
        </mxCell>
        <mxCell id="uX7iz60XXTC2MCOfte5J-39" value="" style="ellipse;whiteSpace=wrap;html=1;aspect=fixed;fillColor=#d5e8d4;strokeColor=#82b366;" parent="1" vertex="1">
          <mxGeometry x="160" y="610" width="40" height="40" as="geometry" />
        </mxCell>
        <mxCell id="uX7iz60XXTC2MCOfte5J-86" value="0.Create dev/staging branch" style="text;html=1;align=center;verticalAlign=middle;resizable=0;points=[];autosize=1;strokeColor=none;fillColor=none;" parent="1" vertex="1">
          <mxGeometry x="110" y="580" width="170" height="20" as="geometry" />
        </mxCell>
        <mxCell id="uX7iz60XXTC2MCOfte5J-87" value="&lt;i&gt;&lt;b&gt;AWS Prod&lt;/b&gt;&lt;/i&gt;" style="text;html=1;align=center;verticalAlign=middle;resizable=0;points=[];autosize=1;strokeColor=none;fillColor=none;" parent="1" vertex="1">
          <mxGeometry x="930" y="620" width="70" height="20" as="geometry" />
        </mxCell>
        <mxCell id="uX7iz60XXTC2MCOfte5J-88" value="&lt;i&gt;&lt;b&gt;AWS Dev&lt;/b&gt;&lt;/i&gt;" style="text;html=1;align=center;verticalAlign=middle;resizable=0;points=[];autosize=1;strokeColor=none;fillColor=none;" parent="1" vertex="1">
          <mxGeometry x="930" y="730" width="70" height="20" as="geometry" />
        </mxCell>
        <mxCell id="uX7iz60XXTC2MCOfte5J-89" value="&lt;i&gt;&lt;b&gt;AWS Staging&lt;/b&gt;&lt;/i&gt;" style="text;html=1;align=center;verticalAlign=middle;resizable=0;points=[];autosize=1;strokeColor=none;fillColor=none;" parent="1" vertex="1">
          <mxGeometry x="920" y="830" width="90" height="20" as="geometry" />
        </mxCell>
        <mxCell id="uX7iz60XXTC2MCOfte5J-90" value="1.2 Code development and test" style="text;html=1;align=center;verticalAlign=middle;resizable=0;points=[];autosize=1;strokeColor=none;fillColor=none;" parent="1" vertex="1">
          <mxGeometry x="265" y="660" width="180" height="20" as="geometry" />
        </mxCell>
        <mxCell id="uX7iz60XXTC2MCOfte5J-91" value="Tag and Ready for Prod" style="text;html=1;align=center;verticalAlign=middle;resizable=0;points=[];autosize=1;strokeColor=none;fillColor=#FFCCE6;" parent="1" vertex="1">
          <mxGeometry x="688" y="847" width="145" height="26" as="geometry" />
        </mxCell>
        <mxCell id="uX7iz60XXTC2MCOfte5J-92" value="Ready for Staging" style="text;html=1;align=center;verticalAlign=middle;resizable=0;points=[];autosize=1;strokeColor=none;fillColor=#FFCCE6;" parent="1" vertex="1">
          <mxGeometry x="590" y="710" width="110" height="20" as="geometry" />
        </mxCell>
        <mxCell id="uX7iz60XXTC2MCOfte5J-93" value="1.1Create feature branch" style="text;html=1;align=center;verticalAlign=middle;resizable=0;points=[];autosize=1;strokeColor=none;fillColor=none;" parent="1" vertex="1">
          <mxGeometry x="210" y="770" width="150" height="20" as="geometry" />
        </mxCell>
        <mxCell id="HuhxW66Ebtv0QDf_SXtC-1" value="" style="rounded=0;whiteSpace=wrap;html=1;shadow=0;strokeColor=#CC0066;fillColor=none;" parent="1" vertex="1">
          <mxGeometry x="203" y="1086" width="320" height="170" as="geometry" />
        </mxCell>
        <mxCell id="HuhxW66Ebtv0QDf_SXtC-2" value="" style="endArrow=none;html=1;rounded=0;startArrow=none;strokeWidth=2;" parent="1" source="HuhxW66Ebtv0QDf_SXtC-9" edge="1">
          <mxGeometry width="50" height="50" relative="1" as="geometry">
            <mxPoint x="82" y="1063" as="sourcePoint" />
            <mxPoint x="922" y="1063" as="targetPoint" />
          </mxGeometry>
        </mxCell>
        <mxCell id="HuhxW66Ebtv0QDf_SXtC-3" value="" style="endArrow=none;html=1;rounded=0;strokeWidth=2;" parent="1" target="HuhxW66Ebtv0QDf_SXtC-40" edge="1">
          <mxGeometry width="50" height="50" relative="1" as="geometry">
            <mxPoint x="82" y="1063" as="sourcePoint" />
            <mxPoint x="722" y="1063" as="targetPoint" />
          </mxGeometry>
        </mxCell>
        <mxCell id="HuhxW66Ebtv0QDf_SXtC-4" value="master" style="text;html=1;align=center;verticalAlign=middle;resizable=0;points=[];autosize=1;strokeColor=none;fillColor=#66FF66;" parent="1" vertex="1">
          <mxGeometry x="62" y="1073" width="50" height="20" as="geometry" />
        </mxCell>
        <mxCell id="HuhxW66Ebtv0QDf_SXtC-5" value="" style="ellipse;whiteSpace=wrap;html=1;aspect=fixed;fillColor=#d5e8d4;strokeColor=#82b366;" parent="1" vertex="1">
          <mxGeometry x="282" y="1043" width="40" height="40" as="geometry" />
        </mxCell>
        <mxCell id="HuhxW66Ebtv0QDf_SXtC-6" value="" style="endArrow=none;html=1;rounded=0;startArrow=none;strokeWidth=2;" parent="1" source="HuhxW66Ebtv0QDf_SXtC-40" target="HuhxW66Ebtv0QDf_SXtC-5" edge="1">
          <mxGeometry width="50" height="50" relative="1" as="geometry">
            <mxPoint x="162" y="1063" as="sourcePoint" />
            <mxPoint x="722" y="1063" as="targetPoint" />
          </mxGeometry>
        </mxCell>
        <mxCell id="HuhxW66Ebtv0QDf_SXtC-7" value="" style="ellipse;whiteSpace=wrap;html=1;aspect=fixed;fillColor=#d5e8d4;strokeColor=#82b366;" parent="1" vertex="1">
          <mxGeometry x="442" y="1043" width="40" height="40" as="geometry" />
        </mxCell>
        <mxCell id="HuhxW66Ebtv0QDf_SXtC-8" value="" style="endArrow=none;html=1;rounded=0;startArrow=none;strokeWidth=2;" parent="1" source="HuhxW66Ebtv0QDf_SXtC-5" target="HuhxW66Ebtv0QDf_SXtC-7" edge="1">
          <mxGeometry width="50" height="50" relative="1" as="geometry">
            <mxPoint x="322" y="1063" as="sourcePoint" />
            <mxPoint x="722" y="1063" as="targetPoint" />
          </mxGeometry>
        </mxCell>
        <mxCell id="HuhxW66Ebtv0QDf_SXtC-9" value="" style="ellipse;whiteSpace=wrap;html=1;aspect=fixed;fillColor=#d5e8d4;strokeColor=#82b366;" parent="1" vertex="1">
          <mxGeometry x="620" y="1043" width="40" height="40" as="geometry" />
        </mxCell>
        <mxCell id="HuhxW66Ebtv0QDf_SXtC-10" value="" style="endArrow=none;html=1;rounded=0;startArrow=none;strokeWidth=2;" parent="1" source="HuhxW66Ebtv0QDf_SXtC-7" target="HuhxW66Ebtv0QDf_SXtC-9" edge="1">
          <mxGeometry width="50" height="50" relative="1" as="geometry">
            <mxPoint x="482" y="1063" as="sourcePoint" />
            <mxPoint x="722" y="1063" as="targetPoint" />
          </mxGeometry>
        </mxCell>
        <mxCell id="HuhxW66Ebtv0QDf_SXtC-11" value="" style="endArrow=classicThin;html=1;strokeWidth=2;curved=1;endFill=1;" parent="1" edge="1">
          <mxGeometry width="50" height="50" relative="1" as="geometry">
            <mxPoint x="182" y="1063" as="sourcePoint" />
            <mxPoint x="182" y="1173" as="targetPoint" />
          </mxGeometry>
        </mxCell>
        <mxCell id="HuhxW66Ebtv0QDf_SXtC-12" value="" style="endArrow=none;html=1;strokeWidth=2;curved=1;startArrow=none;" parent="1" source="HuhxW66Ebtv0QDf_SXtC-29" edge="1">
          <mxGeometry width="50" height="50" relative="1" as="geometry">
            <mxPoint x="82" y="1173" as="sourcePoint" />
            <mxPoint x="922" y="1173" as="targetPoint" />
          </mxGeometry>
        </mxCell>
        <mxCell id="HuhxW66Ebtv0QDf_SXtC-13" value="staging" style="text;html=1;align=center;verticalAlign=middle;resizable=0;points=[];autosize=1;strokeColor=none;fillColor=#FF9999;" parent="1" vertex="1">
          <mxGeometry x="62" y="1183" width="50" height="20" as="geometry" />
        </mxCell>
        <mxCell id="HuhxW66Ebtv0QDf_SXtC-14" value="" style="endArrow=classicThin;html=1;strokeWidth=2;curved=1;endFill=1;" parent="1" edge="1">
          <mxGeometry width="50" height="50" relative="1" as="geometry">
            <mxPoint x="182" y="1063" as="sourcePoint" />
            <mxPoint x="182" y="1273" as="targetPoint" />
          </mxGeometry>
        </mxCell>
        <mxCell id="HuhxW66Ebtv0QDf_SXtC-15" value="" style="endArrow=none;html=1;strokeWidth=2;curved=1;startArrow=none;" parent="1" source="HuhxW66Ebtv0QDf_SXtC-33" edge="1">
          <mxGeometry width="50" height="50" relative="1" as="geometry">
            <mxPoint x="82" y="1273" as="sourcePoint" />
            <mxPoint x="922" y="1273" as="targetPoint" />
          </mxGeometry>
        </mxCell>
        <mxCell id="HuhxW66Ebtv0QDf_SXtC-16" value="dev" style="text;html=1;align=center;verticalAlign=middle;resizable=0;points=[];autosize=1;strokeColor=none;fillColor=#66FF66;" parent="1" vertex="1">
          <mxGeometry x="72" y="1283" width="30" height="20" as="geometry" />
        </mxCell>
        <mxCell id="HuhxW66Ebtv0QDf_SXtC-17" value="" style="endArrow=none;html=1;strokeWidth=2;curved=1;startArrow=none;" parent="1" source="HuhxW66Ebtv0QDf_SXtC-26" edge="1">
          <mxGeometry width="50" height="50" relative="1" as="geometry">
            <mxPoint x="242" y="1173" as="sourcePoint" />
            <mxPoint x="242" y="1133" as="targetPoint" />
          </mxGeometry>
        </mxCell>
        <mxCell id="HuhxW66Ebtv0QDf_SXtC-18" value="" style="endArrow=none;html=1;strokeWidth=2;curved=1;" parent="1" edge="1">
          <mxGeometry width="50" height="50" relative="1" as="geometry">
            <mxPoint x="242" y="1133" as="sourcePoint" />
            <mxPoint x="462" y="1133" as="targetPoint" />
          </mxGeometry>
        </mxCell>
        <mxCell id="HuhxW66Ebtv0QDf_SXtC-19" value="" style="endArrow=none;html=1;strokeWidth=2;curved=1;startArrow=none;" parent="1" source="HuhxW66Ebtv0QDf_SXtC-35" edge="1">
          <mxGeometry width="50" height="50" relative="1" as="geometry">
            <mxPoint x="461.5" y="1173" as="sourcePoint" />
            <mxPoint x="461.5" y="1133" as="targetPoint" />
          </mxGeometry>
        </mxCell>
        <mxCell id="HuhxW66Ebtv0QDf_SXtC-20" value="" style="ellipse;whiteSpace=wrap;html=1;aspect=fixed;fillColor=#dae8fc;strokeColor=#6c8ebf;" parent="1" vertex="1">
          <mxGeometry x="282" y="1113" width="40" height="40" as="geometry" />
        </mxCell>
        <mxCell id="HuhxW66Ebtv0QDf_SXtC-21" value="" style="ellipse;whiteSpace=wrap;html=1;aspect=fixed;fillColor=#dae8fc;strokeColor=#6c8ebf;" parent="1" vertex="1">
          <mxGeometry x="392" y="1113" width="40" height="40" as="geometry" />
        </mxCell>
        <mxCell id="HuhxW66Ebtv0QDf_SXtC-22" value="" style="endArrow=none;html=1;strokeWidth=2;curved=1;" parent="1" target="HuhxW66Ebtv0QDf_SXtC-26" edge="1">
          <mxGeometry width="50" height="50" relative="1" as="geometry">
            <mxPoint x="82" y="1173" as="sourcePoint" />
            <mxPoint x="722" y="1173" as="targetPoint" />
          </mxGeometry>
        </mxCell>
        <mxCell id="HuhxW66Ebtv0QDf_SXtC-23" value="" style="ellipse;whiteSpace=wrap;html=1;aspect=fixed;fillColor=#d5e8d4;strokeColor=#82b366;" parent="1" vertex="1">
          <mxGeometry x="337" y="1153" width="40" height="40" as="geometry" />
        </mxCell>
        <mxCell id="HuhxW66Ebtv0QDf_SXtC-24" value="" style="endArrow=none;html=1;strokeWidth=2;curved=1;startArrow=none;" parent="1" source="HuhxW66Ebtv0QDf_SXtC-26" target="HuhxW66Ebtv0QDf_SXtC-23" edge="1">
          <mxGeometry width="50" height="50" relative="1" as="geometry">
            <mxPoint x="232" y="1173" as="sourcePoint" />
            <mxPoint x="722" y="1173" as="targetPoint" />
          </mxGeometry>
        </mxCell>
        <mxCell id="HuhxW66Ebtv0QDf_SXtC-25" value="" style="endArrow=none;html=1;strokeWidth=2;curved=1;" parent="1" target="HuhxW66Ebtv0QDf_SXtC-35" edge="1">
          <mxGeometry width="50" height="50" relative="1" as="geometry">
            <mxPoint x="461.5" y="1173" as="sourcePoint" />
            <mxPoint x="461.5" y="1133" as="targetPoint" />
          </mxGeometry>
        </mxCell>
        <mxCell id="HuhxW66Ebtv0QDf_SXtC-26" value="" style="ellipse;whiteSpace=wrap;html=1;aspect=fixed;fillColor=#d5e8d4;strokeColor=#82b366;" parent="1" vertex="1">
          <mxGeometry x="222" y="1153" width="40" height="40" as="geometry" />
        </mxCell>
        <mxCell id="HuhxW66Ebtv0QDf_SXtC-27" value="" style="endArrow=none;html=1;strokeWidth=2;curved=1;" parent="1" target="HuhxW66Ebtv0QDf_SXtC-26" edge="1">
          <mxGeometry width="50" height="50" relative="1" as="geometry">
            <mxPoint x="242" y="1173" as="sourcePoint" />
            <mxPoint x="242" y="1133" as="targetPoint" />
          </mxGeometry>
        </mxCell>
        <mxCell id="HuhxW66Ebtv0QDf_SXtC-28" value="1.3 Merge and deploy&amp;nbsp;" style="text;html=1;align=center;verticalAlign=middle;resizable=0;points=[];autosize=1;strokeColor=none;fillColor=none;" parent="1" vertex="1">
          <mxGeometry x="382" y="1203" width="130" height="20" as="geometry" />
        </mxCell>
        <mxCell id="HuhxW66Ebtv0QDf_SXtC-29" value="" style="ellipse;whiteSpace=wrap;html=1;aspect=fixed;fillColor=#d5e8d4;strokeColor=#82b366;" parent="1" vertex="1">
          <mxGeometry x="552" y="1153" width="40" height="40" as="geometry" />
        </mxCell>
        <mxCell id="HuhxW66Ebtv0QDf_SXtC-30" value="" style="endArrow=none;html=1;strokeWidth=2;curved=1;startArrow=none;" parent="1" source="HuhxW66Ebtv0QDf_SXtC-23" target="HuhxW66Ebtv0QDf_SXtC-29" edge="1">
          <mxGeometry width="50" height="50" relative="1" as="geometry">
            <mxPoint x="377" y="1173" as="sourcePoint" />
            <mxPoint x="722" y="1173" as="targetPoint" />
          </mxGeometry>
        </mxCell>
        <mxCell id="HuhxW66Ebtv0QDf_SXtC-31" value="" style="endArrow=classicThin;html=1;strokeWidth=2;curved=1;endFill=1;" parent="1" edge="1">
          <mxGeometry width="50" height="50" relative="1" as="geometry">
            <mxPoint x="640" y="1173" as="sourcePoint" />
            <mxPoint x="640" y="1083" as="targetPoint" />
          </mxGeometry>
        </mxCell>
        <mxCell id="HuhxW66Ebtv0QDf_SXtC-32" value="1. Hot fix, Bug fix" style="text;html=1;align=center;verticalAlign=middle;resizable=0;points=[];autosize=1;strokeColor=none;fillColor=#CCFFFF;shadow=0;" parent="1" vertex="1">
          <mxGeometry x="300" y="1233" width="110" height="20" as="geometry" />
        </mxCell>
        <mxCell id="HuhxW66Ebtv0QDf_SXtC-33" value="" style="ellipse;whiteSpace=wrap;html=1;aspect=fixed;fillColor=#d5e8d4;strokeColor=#82b366;" parent="1" vertex="1">
          <mxGeometry x="700" y="1253" width="40" height="40" as="geometry" />
        </mxCell>
        <mxCell id="HuhxW66Ebtv0QDf_SXtC-34" value="" style="endArrow=none;html=1;strokeWidth=2;curved=1;" parent="1" target="HuhxW66Ebtv0QDf_SXtC-33" edge="1">
          <mxGeometry width="50" height="50" relative="1" as="geometry">
            <mxPoint x="82" y="1273" as="sourcePoint" />
            <mxPoint x="722" y="1273" as="targetPoint" />
          </mxGeometry>
        </mxCell>
        <mxCell id="HuhxW66Ebtv0QDf_SXtC-35" value="" style="ellipse;whiteSpace=wrap;html=1;aspect=fixed;fillColor=#d5e8d4;strokeColor=#82b366;" parent="1" vertex="1">
          <mxGeometry x="440" y="1153" width="42" height="42" as="geometry" />
        </mxCell>
        <mxCell id="HuhxW66Ebtv0QDf_SXtC-36" value="3.Merge and deploy&amp;nbsp;" style="text;html=1;align=center;verticalAlign=middle;resizable=0;points=[];autosize=1;strokeColor=none;fillColor=#CCFFFF;" parent="1" vertex="1">
          <mxGeometry x="660" y="1303" width="120" height="20" as="geometry" />
        </mxCell>
        <mxCell id="HuhxW66Ebtv0QDf_SXtC-37" value="" style="endArrow=classic;html=1;strokeWidth=2;curved=1;entryX=0.5;entryY=0;entryDx=0;entryDy=0;" parent="1" target="HuhxW66Ebtv0QDf_SXtC-33" edge="1">
          <mxGeometry width="50" height="50" relative="1" as="geometry">
            <mxPoint x="720" y="1173" as="sourcePoint" />
            <mxPoint x="720" y="1243" as="targetPoint" />
          </mxGeometry>
        </mxCell>
        <mxCell id="HuhxW66Ebtv0QDf_SXtC-39" value="2.Merge and deploy&amp;nbsp;" style="text;html=1;align=center;verticalAlign=middle;resizable=0;points=[];autosize=1;strokeColor=none;fillColor=#CCFFFF;" parent="1" vertex="1">
          <mxGeometry x="585" y="1020" width="120" height="20" as="geometry" />
        </mxCell>
        <mxCell id="HuhxW66Ebtv0QDf_SXtC-40" value="" style="ellipse;whiteSpace=wrap;html=1;aspect=fixed;fillColor=#d5e8d4;strokeColor=#82b366;" parent="1" vertex="1">
          <mxGeometry x="162" y="1043" width="40" height="40" as="geometry" />
        </mxCell>
        <mxCell id="HuhxW66Ebtv0QDf_SXtC-41" value="0.Create dev/staging branch" style="text;html=1;align=center;verticalAlign=middle;resizable=0;points=[];autosize=1;strokeColor=none;fillColor=none;" parent="1" vertex="1">
          <mxGeometry x="102" y="1020" width="170" height="20" as="geometry" />
        </mxCell>
        <mxCell id="HuhxW66Ebtv0QDf_SXtC-42" value="&lt;i&gt;&lt;b&gt;AWS Prod&lt;/b&gt;&lt;/i&gt;" style="text;html=1;align=center;verticalAlign=middle;resizable=0;points=[];autosize=1;strokeColor=none;fillColor=none;" parent="1" vertex="1">
          <mxGeometry x="932" y="1053" width="70" height="20" as="geometry" />
        </mxCell>
        <mxCell id="HuhxW66Ebtv0QDf_SXtC-43" value="&lt;i&gt;&lt;b&gt;AWS Dev&lt;/b&gt;&lt;/i&gt;" style="text;html=1;align=center;verticalAlign=middle;resizable=0;points=[];autosize=1;strokeColor=none;fillColor=none;" parent="1" vertex="1">
          <mxGeometry x="930" y="1263" width="70" height="20" as="geometry" />
        </mxCell>
        <mxCell id="HuhxW66Ebtv0QDf_SXtC-44" value="&lt;i&gt;&lt;b&gt;AWS Staging&lt;/b&gt;&lt;/i&gt;" style="text;html=1;align=center;verticalAlign=middle;resizable=0;points=[];autosize=1;strokeColor=none;fillColor=none;" parent="1" vertex="1">
          <mxGeometry x="922" y="1161" width="90" height="20" as="geometry" />
        </mxCell>
        <mxCell id="HuhxW66Ebtv0QDf_SXtC-45" value="1.2 Code development and test" style="text;html=1;align=center;verticalAlign=middle;resizable=0;points=[];autosize=1;strokeColor=none;fillColor=none;" parent="1" vertex="1">
          <mxGeometry x="267" y="1093" width="180" height="20" as="geometry" />
        </mxCell>
        <mxCell id="HuhxW66Ebtv0QDf_SXtC-46" value="Merge to dev" style="text;html=1;align=center;verticalAlign=middle;resizable=0;points=[];autosize=1;strokeColor=none;fillColor=#FFCCE6;" parent="1" vertex="1">
          <mxGeometry x="675" y="1141" width="90" height="20" as="geometry" />
        </mxCell>
        <mxCell id="HuhxW66Ebtv0QDf_SXtC-47" value="Tag and Ready for Prod" style="text;html=1;align=center;verticalAlign=middle;resizable=0;points=[];autosize=1;strokeColor=none;fillColor=#FFCCE6;" parent="1" vertex="1">
          <mxGeometry x="578" y="1182" width="145" height="26" as="geometry" />
        </mxCell>
        <mxCell id="HuhxW66Ebtv0QDf_SXtC-48" value="1.1Create branch" style="text;html=1;align=center;verticalAlign=middle;resizable=0;points=[];autosize=1;strokeColor=none;fillColor=none;" parent="1" vertex="1">
          <mxGeometry x="232" y="1203" width="110" height="20" as="geometry" />
        </mxCell>
      </root>
    </mxGraphModel>
  </diagram>
  <diagram id="zmTtrEYp8GHqezdrrm6u" name="Page-4">
    <mxGraphModel dx="1422" dy="800" grid="0" gridSize="10" guides="1" tooltips="1" connect="1" arrows="1" fold="1" page="1" pageScale="1" pageWidth="850" pageHeight="1100" math="0" shadow="0">
      <root>
        <mxCell id="0" />
        <mxCell id="1" parent="0" />
        <mxCell id="4jvuJdSrkte1z4_PsFBx-1" value="" style="endArrow=none;html=1;rounded=0;startArrow=none;strokeWidth=2;" parent="1" source="4jvuJdSrkte1z4_PsFBx-11" edge="1">
          <mxGeometry width="50" height="50" relative="1" as="geometry">
            <mxPoint x="80" y="320" as="sourcePoint" />
            <mxPoint x="720" y="320" as="targetPoint" />
          </mxGeometry>
        </mxCell>
        <mxCell id="4jvuJdSrkte1z4_PsFBx-2" value="" style="ellipse;whiteSpace=wrap;html=1;aspect=fixed;fillColor=#d5e8d4;strokeColor=#82b366;" parent="1" vertex="1">
          <mxGeometry x="120" y="300" width="40" height="40" as="geometry" />
        </mxCell>
        <mxCell id="4jvuJdSrkte1z4_PsFBx-3" value="" style="endArrow=none;html=1;rounded=0;strokeWidth=2;" parent="1" target="4jvuJdSrkte1z4_PsFBx-2" edge="1">
          <mxGeometry width="50" height="50" relative="1" as="geometry">
            <mxPoint x="80" y="320" as="sourcePoint" />
            <mxPoint x="720" y="320" as="targetPoint" />
          </mxGeometry>
        </mxCell>
        <mxCell id="4jvuJdSrkte1z4_PsFBx-4" value="" style="ellipse;whiteSpace=wrap;html=1;aspect=fixed;fillColor=#d5e8d4;strokeColor=#82b366;" parent="1" vertex="1">
          <mxGeometry x="280" y="300" width="40" height="40" as="geometry" />
        </mxCell>
        <mxCell id="4jvuJdSrkte1z4_PsFBx-5" value="" style="endArrow=none;html=1;rounded=0;startArrow=none;strokeWidth=2;" parent="1" source="4jvuJdSrkte1z4_PsFBx-2" target="4jvuJdSrkte1z4_PsFBx-4" edge="1">
          <mxGeometry width="50" height="50" relative="1" as="geometry">
            <mxPoint x="160" y="320" as="sourcePoint" />
            <mxPoint x="720" y="320" as="targetPoint" />
          </mxGeometry>
        </mxCell>
        <mxCell id="4jvuJdSrkte1z4_PsFBx-6" value="" style="ellipse;whiteSpace=wrap;html=1;aspect=fixed;fillColor=#d5e8d4;strokeColor=#82b366;" parent="1" vertex="1">
          <mxGeometry x="440" y="300" width="40" height="40" as="geometry" />
        </mxCell>
        <mxCell id="4jvuJdSrkte1z4_PsFBx-7" value="" style="endArrow=none;html=1;strokeWidth=2;curved=1;endFill=0;" parent="1" edge="1">
          <mxGeometry width="50" height="50" relative="1" as="geometry">
            <mxPoint x="200" y="320" as="sourcePoint" />
            <mxPoint x="400" y="320" as="targetPoint" />
            <Array as="points">
              <mxPoint x="200" y="260" />
              <mxPoint x="400" y="260" />
            </Array>
          </mxGeometry>
        </mxCell>
        <mxCell id="4jvuJdSrkte1z4_PsFBx-8" value="" style="endArrow=none;html=1;rounded=0;startArrow=none;strokeWidth=2;" parent="1" source="4jvuJdSrkte1z4_PsFBx-4" target="4jvuJdSrkte1z4_PsFBx-6" edge="1">
          <mxGeometry width="50" height="50" relative="1" as="geometry">
            <mxPoint x="320" y="320" as="sourcePoint" />
            <mxPoint x="720" y="320" as="targetPoint" />
          </mxGeometry>
        </mxCell>
        <mxCell id="4jvuJdSrkte1z4_PsFBx-9" value="" style="ellipse;whiteSpace=wrap;html=1;aspect=fixed;fillColor=#dae8fc;strokeColor=#6c8ebf;" parent="1" vertex="1">
          <mxGeometry x="320" y="240" width="40" height="40" as="geometry" />
        </mxCell>
        <mxCell id="4jvuJdSrkte1z4_PsFBx-10" value="" style="ellipse;whiteSpace=wrap;html=1;aspect=fixed;fillColor=#dae8fc;strokeColor=#6c8ebf;" parent="1" vertex="1">
          <mxGeometry x="240" y="240" width="40" height="40" as="geometry" />
        </mxCell>
        <mxCell id="4jvuJdSrkte1z4_PsFBx-11" value="" style="ellipse;whiteSpace=wrap;html=1;aspect=fixed;fillColor=#d5e8d4;strokeColor=#82b366;" parent="1" vertex="1">
          <mxGeometry x="560" y="300" width="40" height="40" as="geometry" />
        </mxCell>
        <mxCell id="4jvuJdSrkte1z4_PsFBx-12" value="" style="endArrow=none;html=1;rounded=0;startArrow=none;strokeWidth=2;" parent="1" source="4jvuJdSrkte1z4_PsFBx-6" target="4jvuJdSrkte1z4_PsFBx-11" edge="1">
          <mxGeometry width="50" height="50" relative="1" as="geometry">
            <mxPoint x="480" y="320" as="sourcePoint" />
            <mxPoint x="720" y="320" as="targetPoint" />
          </mxGeometry>
        </mxCell>
        <mxCell id="4jvuJdSrkte1z4_PsFBx-13" value="" style="endArrow=none;html=1;strokeWidth=2;curved=1;endFill=0;" parent="1" edge="1">
          <mxGeometry width="50" height="50" relative="1" as="geometry">
            <mxPoint x="360" y="320" as="sourcePoint" />
            <mxPoint x="530" y="320" as="targetPoint" />
            <Array as="points">
              <mxPoint x="380" y="380" />
              <mxPoint x="510" y="380" />
            </Array>
          </mxGeometry>
        </mxCell>
        <mxCell id="4jvuJdSrkte1z4_PsFBx-14" value="" style="ellipse;whiteSpace=wrap;html=1;aspect=fixed;fillColor=#f8cecc;strokeColor=#b85450;" parent="1" vertex="1">
          <mxGeometry x="425" y="358" width="40" height="40" as="geometry" />
        </mxCell>
        <mxCell id="4jvuJdSrkte1z4_PsFBx-15" value="Your Work" style="text;html=1;align=center;verticalAlign=middle;resizable=0;points=[];autosize=1;strokeColor=none;fillColor=none;" parent="1" vertex="1">
          <mxGeometry x="265" y="210" width="70" height="20" as="geometry" />
        </mxCell>
        <mxCell id="4jvuJdSrkte1z4_PsFBx-16" value="Other&#39;s Work" style="text;html=1;align=center;verticalAlign=middle;resizable=0;points=[];autosize=1;strokeColor=none;fillColor=none;" parent="1" vertex="1">
          <mxGeometry x="410" y="410" width="80" height="20" as="geometry" />
        </mxCell>
        <mxCell id="4jvuJdSrkte1z4_PsFBx-17" value="master" style="text;html=1;align=center;verticalAlign=middle;resizable=0;points=[];autosize=1;strokeColor=none;fillColor=none;" parent="1" vertex="1">
          <mxGeometry x="50" y="340" width="50" height="20" as="geometry" />
        </mxCell>
      </root>
    </mxGraphModel>
  </diagram>
</mxfile>
